# AST/ASF file generated using VICON BodyLanguage
# -----------------------------------------------
:version 1.10
:name VICON
:units
  mass 1.0
  length 0.45
  angle deg
:documentation
   .ast/.asf automatically generated from VICON data using
   VICON BodyBuilder and BodyLanguage model FoxedUp or BRILLIANT.MOD
:root
   order TX TY TZ RX RY RZ
   axis XYZ
   position 0 0 0  
   orientation 0 0 0 
:bonedata
  begin
     id 1 
     name lhipjoint
     direction 0.578396 -0.714046 0.394458 
     length 2.21935 
     axis 0 0 0  XYZ
  end
  begin
     id 2 
     name lfemur
     direction 0.34202 -0.939693 0  
     length 6.39105  
     axis 0 0 20  XYZ
    dof rx ry rz
    limits (-160.0 20.0)
           (-70.0 70.0)
           (-60.0 70.0)
  end
  begin
     id 3 
     name ltibia
     direction 0.34202 -0.939693 0   
     length 6.99037   
     axis 0 0 20   XYZ
    dof rx
    limits (-10.0 170.0)
  end
  begin
     id 4 
     name lfoot
     direction 0.0582372 -0.160005 0.985397   
     length 2.06111   
     axis -90 7.62852e-016 20   XYZ
    dof rx rz
    limits (-45.0 90.0)
           (-70.0 20.0)
  end
  begin
     id 5 
     name ltoes
     direction 1.53556e-011 -4.21875e-011 1   
     length 1.04074   
     axis -90 7.62852e-016 20   XYZ
    dof rx
    limits (-90.0 20.0)
  end
  begin
     id 6 
     name rhipjoint
     direction -0.558179 -0.726269 0.40121   
     length 2.182  
     axis 0 0 0  XYZ 
  end
  begin
     id 7 
     name rfemur
     direction -0.34202 -0.939693 0   
     length 6.51172   
     axis 0 0 -20   XYZ
    dof rx ry rz
    limits (-160.0 20.0)
           (-70.0 70.0)
           (-70.0 60.0)
  end
  begin
     id 8 
     name rtibia
     direction -0.34202 -0.939693 0   
     length 7.02607   
     axis 0 0 -20   XYZ
    dof rx
    limits (-10.0 170.0)
 end
 begin
     id 9 
     name rfoot
     direction -0.0788856 -0.216737 0.973038   
     length 1.96734  
     axis -90 -7.62852e-016 -20   XYZ
    dof rx rz
    limits (-45.0 90.0)
           (-20.0 70.0)
  end
  begin
     id 10 
     name rtoes
     direction -1.53567e-011 -4.21783e-011 1   
     length 0.990825   
     axis -90 -7.62852e-016 -20   XYZ
    dof rx
    limits (-90.0 20.0)
  end
  begin
     id 11 
     name lowerback
     direction 0.00668177 0.999323 -0.0361741   
     length 1.7655   
     axis 0 0 0   XYZ
    dof rx ry rz
    limits (-20.0 45.0)
           (-30.0 30.0)
           (-30.0 30.0)
  end
  begin
     id 12 
     name upperback
     direction -0.00222086 0.99851 0.0545167   
     length 1.74912   
     axis 0 0 0   XYZ
    dof rx ry rz
    limits (-20.0 45.0)
           (-30.0 30.0)
           (-30.0 30.0)
  end
  begin
     id 13 
     name thorax
     direction -0.00733971 0.997496 0.0703443   
     length 1.75715   
     axis 0 0 0   XYZ
    dof rx ry rz
    limits (-20.0 45.0)
           (-30.0 30.0)
           (-30.0 30.0)
  end
  begin
     id 14 
     name lowerneck
     direction 0.0279797 0.994795 0.0979765   
     length 1.46939   
     axis 0 0 0   XYZ
    dof rx ry rz
    limits (-20.0 45.0)
           (-30.0 30.0)
           (-30.0 30.0)
  end
  begin
     id 15 
     name upperneck
     direction 0.00339187 0.976776 -0.214238   
     length 1.48018   
     axis 0 0 0   XYZ
    dof rx ry rz
    limits (-20.0 45.0)
           (-30.0 30.0)
           (-30.0 30.0)
  end
  begin
     id 16
     name head
     direction -0.00263506 0.996603 -0.0823096  
     length 1.4976  
     axis 0 0 0   XYZ
    dof rx ry rz
    limits (-20.0 45.0)
           (-30.0 30.0)
           (-30.0 30.0)
  end
  begin
     id 17 
     name lclavicle
     direction 0.894044 0.44508 -0.0508781  
     length 3.03024  
     axis 0 0 0   XYZ
    dof ry rz
    limits (-20.0 10.0)
           (0.0 20.0)
  end
  begin
     id 18 
     name lhumerus
     direction 1 -4.48961e-011 -2.39475e-018   
     length 4.4661   
     axis 180 -30 -90   XYZ
    dof rx ry rz
    limits (-60.0 90.0)
           (-90.0 90.0)
           (-90.0 90.0)
  end
  begin
     id 19
     name lradius
     direction 1 -4.48961e-011 9.29328e-028   
     length 3.41414   
     axis 180 -30 -90   XYZ
    dof rx
    limits (-10.0 170.0)
  end
  begin
     id 20
     name lwrist
     direction 1 -4.48985e-011 1.53461e-026   
     length 1.70707   
     axis -1.09697e-014 90 90   XYZ
    dof ry
    limits (-180.0 0.0)
 end
  begin
     id 21 
     name lhand
     direction 1 -4.48966e-011 3.06923e-026   
     length 0.328298   
     axis -1.95843e-014 90 90   XYZ
    dof rx rz
    limits (-90.0 90.0)
           (-45.0 45.0)
  end
  begin
     id 22 
     name lfingers
     direction 1 -4.48893e-011 6.13845e-026   
     length 0.264682   
     axis -3.91686e-014 90 90   XYZ
    dof rx
    limits (0.0 90.0)
  end
  begin
     id 23
     name lthumb
     direction 0.707107 -6.34876e-011 0.707107   
     length 0.380032   
     axis -90 45 2.85299e-015   XYZ
    dof rx rz
    limits (-45.0 45.0)
           (-45.0 45.0)
  end
  begin
     id 24 
     name rclavicle
     direction -0.936955 0.347862 -0.0332887   
     length 3.26927  
     axis 0 0 0   XYZ 
    dof ry rz
    limits (-10.0 20.0)
           (-20.0 0.0)
  end
  begin
     id 25 
     name rhumerus
     direction -1 -4.4896e-011 1.78637e-018  
     length 4.40431   
     axis 180 30 90   XYZ
    dof rx ry rz
    limits (-90.0 60.0)
           (-90.0 90.0)
           (-90.0 90.0)
  end
  begin
     id 26 
     name rradius
     direction -1 -4.48955e-011 9.34036e-027   
     length 3.04688   
     axis 180 30 90   XYZ
    dof rx
    limits (-10.0 170.0)
  end
  begin
     id 27 
     name rwrist
     direction -1 -4.49011e-011 1.53461e-026   
     length 1.52344   
     axis -1.09697e-014 -90 -90   XYZ
    dof ry
    limits (-180.0 0.0)
  end
  begin
     id 28
     name rhand
     direction -1 -4.48834e-011 3.06923e-026   
     length 0.500489   
     axis -1.95843e-014 -90 -90   XYZ
    dof rx rz
    limits (-90.0 90.0)
           (-45.0 45.0)
  end
  begin
     id 29
     name rfingers
     direction -1 -4.48967e-011 6.13845e-026   
     length 0.403507   
     axis -3.91686e-014 -90 -90   XYZ
    dof rx
    limits (0.0 90.0)
  end
  begin
     id 30
     name rthumb
     direction -0.707107 -6.34826e-011 0.707107   
     length 0.579358   
     axis -90 -45 -2.85299e-015   XYZ
    dof rx rz
    limits (-45.0 45.0)
           (-45.0 45.0)
  end
:hierarchy
  begin
    root lhipjoint rhipjoint lowerback
    lhipjoint lfemur
    lfemur ltibia
    ltibia lfoot
    lfoot ltoes
    rhipjoint rfemur
    rfemur rtibia
    rtibia rfoot
    rfoot rtoes
    lowerback upperback
    upperback thorax
    thorax lowerneck lclavicle rclavicle
    lowerneck upperneck
    upperneck head
    lclavicle lhumerus
    lhumerus lradius
    lradius lwrist
    lwrist lhand lthumb
    lhand lfingers
    rclavicle rhumerus
    rhumerus rradius
    rradius rwrist
    rwrist rhand rthumb
    rhand rfingers
  end

#!OML:ASF H:\IndianDance\Patient Classification 1\Patient 1\Session 1\dancer.ASF
:FULLY-SPECIFIED
:DEGREES
99
root 1.6801 13.0357 11.9658 -175.823 -2.70155 -176.691
lowerback 3.71854 2.01266 1.20023
upperback -5.89789 2.58038 0.347317
thorax -8.23392 1.09872 -0.56851
lowerneck -21.2345 1.19961 0.960532
upperneck 24.6924 -1.27843 6.6011
head 11.6672 0.112058 2.03006
rclavicle -1.30701e-014 -2.18663e-015
rhumerus -13.9071 32.0266 -12.7498
rradius 35.8944
rwrist -6.94654
rhand -48.9235 39.0832
rfingers 7.12502
rthumb -21.5556 10.2628
lclavicle -1.30701e-014 -2.18663e-015
lhumerus -3.9997 -34.6111 2.02346
lradius 39.4048
lwrist 21.0121
lhand -55.4577 0.439515
lfingers 7.12502
lthumb -27.8179 28.4004
rfemur -45.0066 -42.3338 24.2457
rtibia 80.6345
rfoot -32.3799 -10.6592
rtoes 6.05481
lfemur -40.113 35.3409 -17.6721
ltibia 79.7641
lfoot -37.3682 7.51805
ltoes 2.25049
100
root 1.68016 13.0371 11.9679 -175.828 -2.71986 -176.676
lowerback 3.73707 2.01211 1.20506
upperback -5.89144 2.58106 0.343266
thorax -8.23738 1.09904 -0.576148
lowerneck -21.331 1.13002 0.860583
upperneck 24.8269 -1.35274 6.57863
head 11.7401 0.0684018 2.0303
rclavicle -2.18912e-014 -2.5842e-015
rhumerus -13.8886 32.0293 -12.8035
rradius 35.8519
rwrist -6.78837
rhand -48.813 39.0772
rfingers 7.12502
rthumb -21.4494 10.2447
lclavicle -2.18912e-014 -2.5842e-015
lhumerus -3.98886 -34.5937 2.03655
lradius 39.3734
lwrist 20.9668
lhand -55.4198 0.396489
lfingers 7.12502
lthumb -27.7816 28.3633
rfemur -45.0022 -42.2876 24.2668
rtibia 80.6164
rfoot -32.3602 -10.7112
rtoes 6.08431
lfemur -40.1206 35.3056 -17.664
ltibia 79.7518
lfoot -37.3525 7.53212
ltoes 2.28928
101
root 1.68005 13.0386 11.9701 -175.833 -2.73434 -176.659
lowerback 3.75606 2.01333 1.21148
upperback -5.88245 2.58454 0.340794
thorax -8.23834 1.10081 -0.583287
lowerneck -21.4115 1.0519 0.752479
upperneck 24.9365 -1.42902 6.5467
head 11.8002 0.0217188 2.02733
rclavicle -1.98785e-014 -3.18055e-015
rhumerus -13.8634 32.0287 -12.8472
rradius 35.8081
rwrist -6.61333
rhand -48.6791 39.026
rfingers 7.12502
rthumb -21.3208 10.1789
lclavicle -1.98785e-014 -3.18055e-015
lhumerus -3.97378 -34.5901 2.04407
lradius 39.3416
lwrist 20.9362
lhand -55.3913 0.338265
lfingers 7.12502
lthumb -27.7544 28.3095
rfemur -44.9992 -42.2392 24.2913
rtibia 80.5977
rfoot -32.341 -10.7683
rtoes 6.11822
lfemur -40.1258 35.267 -17.6537
ltibia 79.7386
lfoot -37.3397 7.54826
ltoes 2.33666
102
root 1.67973 13.0403 11.9725 -175.84 -2.74448 -176.641
lowerback 3.77568 2.01601 1.21907
upperback -5.87037 2.59037 0.338696
thorax -8.23625 1.10384 -0.59092
lowerneck -21.4732 0.966024 0.635808
upperneck 25.0174 -1.50736 6.51068
head 11.8458 -0.0274847 2.02311
rclavicle 3.62534e-014 3.97569e-015
rhumerus -13.8311 32.0242 -12.8818
rradius 35.7649
rwrist -6.43212
rhand -48.5087 38.9209
rfingers 7.12502
rthumb -21.1572 10.0553
lclavicle 3.62534e-014 3.97569e-015
lhumerus -3.95333 -34.5909 2.04699
lradius 39.3088
lwrist 20.9212
lhand -55.3772 0.285411
lfingers 7.12502
lthumb -27.7409 28.2588
rfemur -44.9954 -42.1886 24.3165
rtibia 80.5777
rfoot -32.322 -10.8286
rtoes 6.16433
lfemur -40.1262 35.2252 -17.6419
ltibia 79.7231
lfoot -37.3295 7.56547
ltoes 2.39458
103
root 1.67924 13.042 11.9749 -175.849 -2.74965 -176.624
lowerback 3.7963 2.01929 1.22633
upperback -5.85541 2.59723 0.336477
thorax -8.2316 1.10754 -0.59861
lowerneck -21.5145 0.874243 0.516889
upperneck 25.0687 -1.587 6.469
head 11.876 -0.0785118 2.0161
rclavicle -2.85504e-014 -5.96354e-015
rhumerus -13.7905 32.0143 -12.9096
rradius 35.7237
rwrist -6.2527
rhand -48.2956 38.7738
rfingers 7.12502
rthumb -20.9525 9.88547
lclavicle -2.85504e-014 -5.96354e-015
lhumerus -3.93448 -34.5793 2.05017
lradius 39.2763
lwrist 20.9064
lhand -55.3809 0.186367
lfingers 7.12502
lthumb -27.7444 28.1592
rfemur -44.9904 -42.1373 24.3414
rtibia 80.5566
rfoot -32.303 -10.8944
rtoes 6.20649
lfemur -40.1212 35.1825 -17.6296
ltibia 79.7048
lfoot -37.3217 7.58844
ltoes 2.44793
104
root 1.67861 13.0438 11.9775 -175.859 -2.74998 -176.607
lowerback 3.81571 2.02224 1.23158
upperback -5.83766 2.60358 0.33322
thorax -8.22326 1.11124 -0.60613
lowerneck -21.5363 0.776553 0.396858
upperneck 25.0903 -1.66987 6.42557
head 11.8911 -0.131627 2.0073
rclavicle 3.06377e-014 1.59028e-014
rhumerus -13.7384 31.9973 -12.9339
rradius 35.6837
rwrist -6.07821
rhand -48.0419 38.5513
rfingers 7.12502
rthumb -20.7086 9.6362
lclavicle 3.06377e-014 1.59028e-014
lhumerus -3.9191 -34.5453 2.05389
lradius 39.2442
lwrist 20.8811
lhand -55.4013 0.0464973
lfingers 7.12502
lthumb -27.7639 28.0161
rfemur -44.9847 -42.0839 24.3651
rtibia 80.5339
rfoot -32.2835 -10.965
rtoes 6.24788
lfemur -40.1113 35.1396 -17.6187
ltibia 79.6827
lfoot -37.3169 7.6159
ltoes 2.50266
105
root 1.6779 13.0458 11.98 -175.87 -2.74586 -176.596
lowerback 3.83376 2.02411 1.23085
upperback -5.81783 2.60799 0.327836
thorax -8.21208 1.11441 -0.612266
lowerneck -21.5372 0.673579 0.271819
upperneck 25.0826 -1.75661 6.3885
head 11.8909 -0.186566 2.00034
rclavicle -1.09332e-014 6.36111e-015
rhumerus -13.6741 31.976 -12.9562
rradius 35.6444
rwrist -5.90747
rhand -47.7521 38.2648
rfingers 7.12502
rthumb -20.4302 9.31963
lclavicle -1.09332e-014 6.36111e-015
lhumerus -3.90797 -34.4842 2.05778
lradius 39.212
lwrist 20.8344
lhand -55.4384 -0.126334
lfingers 7.12502
lthumb -27.7994 27.8376
rfemur -44.978 -42.0292 24.3836
rtibia 80.5101
rfoot -32.2642 -11.0413
rtoes 6.27298
lfemur -40.0967 35.0977 -17.6125
ltibia 79.6564
lfoot -37.3136 7.64264
ltoes 2.5728
106
root 1.67702 13.0479 11.9826 -175.882 -2.73733 -176.587
lowerback 3.8504 2.02462 1.22676
upperback -5.79672 2.61018 0.319814
thorax -8.19873 1.11668 -0.618986
lowerneck -21.5179 0.564442 0.143307
upperneck 25.0484 -1.84996 6.35847
head 11.8771 -0.244351 1.99487
rclavicle -3.50358e-014 3.97569e-015
rhumerus -13.5965 31.9473 -12.9785
rradius 35.6058
rwrist -5.73296
rhand -47.4235 37.9181
rfingers 7.12502
rthumb -20.1144 8.93938
lclavicle -3.50358e-014 3.97569e-015
lhumerus -3.90147 -34.3919 2.06183
lradius 39.179
lwrist 20.7616
lhand -55.4884 -0.320751
lfingers 7.12502
lthumb -27.8472 27.6354
rfemur -44.9689 -41.9728 24.3968
rtibia 80.4849
rfoot -32.2432 -11.114
rtoes 6.29896
lfemur -40.0773 35.0585 -17.6096
ltibia 79.6259
lfoot -37.3131 7.66896
ltoes 2.65658
107
root 1.67599 13.0501 11.9851 -175.895 -2.72498 -176.582
lowerback 3.86584 2.02385 1.21811
upperback -5.77504 2.61009 0.308516
thorax -8.18414 1.11804 -0.626309
lowerneck -21.4777 0.447265 0.00729775
upperneck 24.9905 -1.95317 6.33978
head 11.8507 -0.306395 1.99275
rclavicle 3.90612e-014 5.56597e-015
rhumerus -13.5062 31.9089 -13.0015
rradius 35.566
rwrist -5.53865
rhand -47.0667 37.5192
rfingers 7.12502
rthumb -19.7714 8.50474
lclavicle 3.90612e-014 5.56597e-015
lhumerus -3.89738 -34.2736 2.06448
lradius 39.1468
lwrist 20.6703
lhand -55.5303 -0.498359
lfingers 7.12502
lthumb -27.8872 27.4513
rfemur -44.9556 -41.9145 24.4019
rtibia 80.4581
rfoot -32.222 -11.1872
rtoes 6.30965
lfemur -40.0522 35.0217 -17.6108
ltibia 79.5916
lfoot -37.3145 7.69146
ltoes 2.75752
